<svg xmlns="http://www.w3.org/2000/svg" viewBox="0 0 512 512">
  <title>GodUI</title>
  <style>
    path { fill: #000; }
    @media (prefers-color-scheme: dark) { path { fill: #fff; } }
  </style>
  <path d="M139 4.7c-24.2 2.5-49 11.5-69.4 25-13.3 8.8-32.9 28.2-41.5 41.2C14.3 91.8 6 114.2 3 139c-1.4 11.5-1.4 224.5 0 236 4.3 35.7 18.3 64.5 43.9 90.1 18.8 18.7 37.1 30 61.4 37.8 21.6 6.9 15.3 6.6 147.2 6.6s125.6.3 147.2-6.6c24.3-7.8 42.6-19.1 61.4-37.8 18.7-18.8 30-37.1 37.8-61.4 6.9-21.5 6.6-15.4 6.6-146.7s.3-125.2-6.6-146.7c-7.8-24.3-19.1-42.6-37.8-61.4-25.6-25.5-54.3-39.6-89.6-43.8-8.4-1-226.2-1.4-235.5-.4m150.9 70.7c.9 1.1 1.1 13.6.9 48.3l-.3 46.8-2.9 6c-2.5 5-8.3 11.4-34.3 37.6-34 34.3-36 35.8-48.4 37.8-3.6.6-22.8 1.1-43.9 1.1-32.9 0-37.8-.2-39.8-1.6-2.3-1.6-2.3-1.7-2-23.3.3-21.3.3-21.7 3.1-27.3 3.6-7.3 11.9-15 19.2-17.7 5.2-2 7.7-2.1 36.6-2.1 32.5 0 35.3-.3 40.2-4.8 5-4.5 5.2-5.5 5.7-42.2l.5-34.5 2.6-5.6c4.2-8.9 12.6-16.1 21.9-19 1.4-.4 10.9-.8 21.1-.8 14.9-.1 18.9.2 19.8 1.3m102 106c.9 1.1 1.2 7.3.9 22.8-.3 21-.3 21.4-3.2 27.5-3.3 7.3-10.3 14.3-17.3 17.5-4.5 2.1-6.6 2.3-37.3 2.8-31.2.5-32.6.6-36 2.7-1.9 1.2-4.4 3.7-5.5 5.5-1.9 3.2-2 5.5-2.5 79.3l-.5 76-2.8 6c-3.8 8.1-7 12-13 16-7.8 5.1-14.6 6.5-32.6 6.5-13 0-15.7-.3-17.3-1.7-1.7-1.5-1.8-5.5-1.8-86.7 0-92.8-.1-91.7 5.7-101.5 3.4-5.8 62.6-65.6 68.2-68.9 8.2-4.8 10.9-5.1 53.7-5.1 33.8-.1 40.3.1 41.3 1.3" />
</svg>
